<svg xmlns="http://www.w3.org/2000/svg" width="512" height="512" viewBox="0 0 512 512" role="img" aria-label="CartGuard logo mark">
  <defs>
    <linearGradient id="cg-stroke" x1="0%" y1="0%" x2="100%" y2="100%">
      <stop offset="0%" stop-color="#d64f8f" />
      <stop offset="100%" stop-color="#8a2f5b" />
    </linearGradient>
  </defs>

  <rect x="20" y="20" width="472" height="472" rx="110" fill="#ffffff" stroke="#f3d8e6" stroke-width="14" />

  <path d="M256 96l122 36v114c0 92-61 141-122 170-61-29-122-78-122-170V132l122-36z"
        fill="none"
        stroke="#1f1a23"
        stroke-width="24"
        stroke-linejoin="round" />

  <path d="M306 188c-12-16-31-25-52-25-37 0-67 31-67 69s30 69 67 69c21 0 40-9 52-24"
        fill="none"
        stroke="url(#cg-stroke)"
        stroke-width="22"
        stroke-linecap="round" />

  <path d="M308 232h-44"
        fill="none"
        stroke="#1f1a23"
        stroke-width="20"
        stroke-linecap="round" />

  <path d="M307 232v44"
        fill="none"
        stroke="#1f1a23"
        stroke-width="20"
        stroke-linecap="round" />

  <circle cx="188" cy="334" r="10" fill="#d64f8f" />
  <circle cx="324" cy="334" r="10" fill="#d64f8f" />
</svg>
