<svg xmlns="http://www.w3.org/2000/svg" width="1220" height="320" viewBox="0 0 1220 320" role="img" aria-label="CartGuard wordmark">
  <defs>
    <linearGradient id="word-stroke" x1="0%" y1="0%" x2="100%" y2="100%">
      <stop offset="0%" stop-color="#d64f8f" />
      <stop offset="100%" stop-color="#8a2f5b" />
    </linearGradient>
  </defs>

  <rect x="20" y="20" width="280" height="280" rx="64" fill="#ffffff" stroke="#f3d8e6" stroke-width="10" />
  <path d="M160 70l74 22v69c0 56-37 86-74 104-37-18-74-48-74-104V92l74-22z"
        fill="none"
        stroke="#1f1a23"
        stroke-width="14"
        stroke-linejoin="round" />
  <path d="M190 125c-8-10-19-16-32-16-22 0-41 19-41 42s19 42 41 42c13 0 24-6 32-15"
        fill="none"
        stroke="url(#word-stroke)"
        stroke-width="12"
        stroke-linecap="round" />
  <path d="M191 151h-26" fill="none" stroke="#1f1a23" stroke-width="10" stroke-linecap="round" />
  <path d="M191 151v26" fill="none" stroke="#1f1a23" stroke-width="10" stroke-linecap="round" />

  <text x="350" y="170"
        fill="#1f1a23"
        font-family="Space Grotesk, Avenir Next, Segoe UI, sans-serif"
        font-size="112"
        font-weight="700"
        letter-spacing="2">
    CARTGUARD
  </text>
  <text x="352" y="225"
        fill="#8a6077"
        font-family="IBM Plex Mono, SFMono-Regular, monospace"
        font-size="28"
        letter-spacing="2">
    TRUST INFRASTRUCTURE FOR AI COMMERCE
  </text>
</svg>
